<svg xmlns="http://www.w3.org/2000/svg" width="32" height="32" viewBox="0 0 32 32" fill="none">
  <path d="M6.625 19.75L12.25 14.125L16 17.875L21.625 12.25L25.375 16M1 27.25V4.75C1 3.75544 1.39509 2.80161 2.09835 2.09835C2.80161 1.39509 3.75544 1 4.75 1H27.25C28.2446 1 29.1984 1.39509 29.9016 2.09835C30.6049 2.80161 31 3.75544 31 4.75V27.25C31 28.2446 30.6049 29.1984 29.9016 29.9016C29.1984 30.6049 28.2446 31 27.25 31H4.75C3.75544 31 2.80161 30.6049 2.09835 29.9016C1.39509 29.1984 1 28.2446 1 27.25Z" stroke="#38FF3F" stroke-width="2" stroke-linecap="round" stroke-linejoin="round"/>
</svg>