<svg xmlns="http://www.w3.org/2000/svg" width="14" height="19" viewBox="0 0 14 19" fill="none">
  <path d="M6.89474 1.5V3.18421M4.36842 9.92105V17.5M9.42105 9.92105V17.5M1 13.2895L4.36842 11.6053M9.42105 11.6053L12.7895 13.2895M4.36842 14.9737H9.42105M5.21053 6.55263V6.56105M8.57895 6.55263V6.56105M1.84211 4.86842C1.84211 4.42174 2.01955 3.99336 2.3354 3.6775C2.65125 3.36165 3.07964 3.18421 3.52632 3.18421H10.2632C10.7098 3.18421 11.1382 3.36165 11.4541 3.6775C11.7699 3.99336 11.9474 4.42174 11.9474 4.86842V8.23684C11.9474 8.68352 11.7699 9.11191 11.4541 9.42776C11.1382 9.74361 10.7098 9.92105 10.2632 9.92105H3.52632C3.07964 9.92105 2.65125 9.74361 2.3354 9.42776C2.01955 9.11191 1.84211 8.68352 1.84211 8.23684V4.86842Z" stroke="#38FF3F" stroke-width="2" stroke-linecap="round" stroke-linejoin="round"/>
</svg>