<svg xmlns="http://www.w3.org/2000/svg" width="16" height="16" viewBox="0 0 16 16" fill="none">
  <path d="M3.625 9.75L6.25 7.125L8 8.875L10.625 6.25L12.375 8M1 13.25V2.75C1 2.28587 1.18437 1.84075 1.51256 1.51256C1.84075 1.18437 2.28587 1 2.75 1H13.25C13.7141 1 14.1592 1.18437 14.4874 1.51256C14.8156 1.84075 15 2.28587 15 2.75V13.25C15 13.7141 14.8156 14.1592 14.4874 14.4874C14.1592 14.8156 13.7141 15 13.25 15H2.75C2.28587 15 1.84075 14.8156 1.51256 14.4874C1.18437 14.1592 1 13.7141 1 13.25Z" stroke="#111111" stroke-width="2" stroke-linecap="round" stroke-linejoin="round"/>
</svg>