<svg xmlns="http://www.w3.org/2000/svg" width="18" height="18" viewBox="0 0 18 18" fill="none">
  <path d="M5.94224 1.61334C4.97164 2.0151 4.08967 2.60409 3.34668 3.34667M1.61333 5.94222C1.21027 6.91137 1.00187 7.95037 1 9M1.61334 12.0578C2.0151 13.0284 2.60409 13.9103 3.34667 14.6533M5.94222 16.3867C6.91137 16.7897 7.95037 16.9981 9 17M12.0578 16.3867C13.0284 15.9849 13.9103 15.3959 14.6533 14.6533M16.3867 12.0578C16.7897 11.0886 16.9981 10.0496 17 9M16.3867 5.94224C15.9849 4.97164 15.3959 4.08967 14.6533 3.34668M12.0578 1.61333C11.0886 1.21027 10.0496 1.00187 9 1M6.33333 9L8.11111 10.7778L11.6667 7.22222" stroke="#38FF3F" stroke-width="2" stroke-linecap="round" stroke-linejoin="round"/>
</svg>