<svg xmlns="http://www.w3.org/2000/svg" width="35" height="32" viewBox="0 0 35 32" fill="none">
  <path fill-rule="evenodd" clip-rule="evenodd" d="M3.59717 21.665C4.14945 21.665 4.59717 22.1127 4.59717 22.665C4.59717 24.7083 6.52817 26.4325 9.40249 26.4325C12.2562 26.4325 14.1916 24.6956 14.1916 22.665C14.1916 22.1127 14.6393 21.665 15.1916 21.665C15.7439 21.665 16.1916 22.1127 16.1916 22.665V25.9569C16.1916 29.4241 13.0144 32 9.40249 32C5.79438 32 2.59717 29.4275 2.59717 25.9569V22.665C2.59717 22.1127 3.04488 21.665 3.59717 21.665ZM4.74233 26.9313C5.25236 28.6252 7.05872 30 9.40249 30C11.7466 30 13.5456 28.6233 14.0496 26.9245C12.8019 27.8909 11.136 28.4325 9.40249 28.4325C7.66284 28.4325 5.99271 27.8955 4.74233 26.9313Z" fill="#38FF3F"/>
  <path fill-rule="evenodd" clip-rule="evenodd" d="M9.3676 14.1782C7.99104 14.1782 6.78588 14.6501 5.92435 15.4056L5.92354 15.4063C5.07235 16.1511 4.57861 17.1369 4.57861 18.205C4.57861 18.8218 4.74944 19.3895 5.04948 19.8913C5.78943 21.091 7.3886 21.9725 9.38383 21.9725C11.3854 21.9725 12.9798 21.1028 13.7169 19.8934C14.0178 19.391 14.1892 18.8225 14.1892 18.205C14.1892 17.1345 13.6941 16.142 12.8301 15.422L12.8176 15.4114C11.9478 14.6621 10.7371 14.1782 9.3676 14.1782ZM4.60612 13.9015C5.85261 12.8087 7.53361 12.1782 9.3676 12.1782C11.2058 12.1782 12.879 12.8271 14.1168 13.8908C15.3896 14.9544 16.1892 16.4893 16.1892 18.205C16.1892 19.2081 15.907 20.1306 15.4304 20.9249L15.4273 20.9301L15.4273 20.9301C14.2503 22.8651 11.9213 23.9725 9.38383 23.9725C6.84112 23.9725 4.51752 22.8455 3.34276 20.934L3.33718 20.9249L3.33723 20.9249C2.86061 20.1305 2.57861 19.208 2.57861 18.205C2.57861 16.4843 3.38189 14.9729 4.60612 13.9015Z" fill="#38FF3F"/>
  <path fill-rule="evenodd" clip-rule="evenodd" d="M9.40249 14.1619C6.60724 14.1619 4.59717 16.0957 4.59717 18.205V22.6644C4.59717 24.6919 6.54486 26.4319 9.40249 26.4319C12.2586 26.4319 14.1916 24.7093 14.1916 22.6644V18.205C14.1916 17.1345 13.6959 16.1345 12.8495 15.3926C11.98 14.6448 10.7705 14.1619 9.40249 14.1619ZM2.59717 18.205C2.59717 14.7361 5.77624 12.1619 9.40249 12.1619C11.2437 12.1619 12.9195 12.813 14.1579 13.8799L14.1637 13.8849L14.1637 13.885C15.3912 14.959 16.1916 16.4877 16.1916 18.205V22.6644C16.1916 26.1978 12.9354 28.4319 9.40249 28.4319C5.87105 28.4319 2.59717 26.1828 2.59717 22.6644V18.205Z" fill="#38FF3F"/>
  <path fill-rule="evenodd" clip-rule="evenodd" d="M28.4371 12.4593C27.7969 12.4593 27.2289 12.7083 26.8185 13.1298C26.8126 13.1359 26.8066 13.1419 26.8006 13.1478C26.3248 13.6122 26.0574 14.2754 26.1246 14.9806L26.1257 14.9924L26.1256 14.9924C26.2221 16.1503 27.3216 17.1078 28.6317 17.1078H31.7885C32.1651 17.0873 32.4316 16.7891 32.4316 16.4538V13.1132C32.4316 12.7779 32.1651 12.4798 31.7885 12.4593H28.4371ZM25.3944 11.7255C26.1832 10.9202 27.2655 10.4593 28.4371 10.4593H31.81C31.8219 10.4593 31.8338 10.4595 31.8457 10.4599C33.2778 10.5111 34.4316 11.669 34.4316 13.1132V16.4538C34.4316 17.8981 33.2778 19.056 31.8457 19.1071C31.8338 19.1076 31.8219 19.1078 31.81 19.1078H28.6317C26.441 19.1078 24.3315 17.5058 24.133 15.1643C24.0081 13.8332 24.5149 12.5891 25.3944 11.7255Z" fill="#38FF3F"/>
  <path fill-rule="evenodd" clip-rule="evenodd" d="M9.10795 2C8.70156 2 8.31471 2.02902 7.94652 2.08566C7.93736 2.08707 7.92818 2.08836 7.91898 2.08951C6.07502 2.32091 4.61244 3.11301 3.60765 4.29187C2.60081 5.47313 2 7.10641 2 9.10795V12.3511C2 12.9034 1.55228 13.3511 1 13.3511C0.447715 13.3511 0 12.9034 0 12.3511V9.10795C0 6.69877 0.728892 4.58617 2.08553 2.99451C3.44149 1.40363 5.37113 0.396613 7.65622 0.106806C8.12692 0.0351457 8.6111 0 9.10795 0H23.7023C24.1366 0 24.5969 0.0158658 25.0579 0.090562C27.3636 0.363987 29.3159 1.36477 30.6903 2.95742C32.0676 4.55345 32.8102 6.6801 32.8102 9.10795V11.4593C32.8102 12.0116 32.3625 12.4593 31.8102 12.4593H28.4373C27.7971 12.4593 27.2291 12.7083 26.8186 13.1298C26.8127 13.1359 26.8068 13.1419 26.8007 13.1478C26.3249 13.6122 26.0576 14.2753 26.1248 14.9806L26.1259 14.9923L26.1258 14.9923C26.2223 16.1503 27.3217 17.1077 28.6318 17.1077H31.8102C32.3625 17.1077 32.8102 17.5555 32.8102 18.1077V20.4591C32.8102 23.1187 31.9193 25.4128 30.2876 27.0444C28.656 28.6761 26.3619 29.567 23.7023 29.567H19.6483C19.096 29.567 18.6483 29.1193 18.6483 28.567C18.6483 28.0147 19.096 27.567 19.6483 27.567H23.7023C25.9074 27.567 27.6673 26.8363 28.8734 25.6302C30.0795 24.4241 30.8102 22.6642 30.8102 20.4591V19.1077H28.6318C26.4412 19.1077 24.3317 17.5058 24.1332 15.1645C24.0082 13.8332 24.5151 12.5891 25.3946 11.7254C26.1834 10.9202 27.2657 10.4593 28.4373 10.4593H30.8102V9.10795C30.8102 7.09264 30.1988 5.44909 29.1761 4.26408C28.1553 3.0812 26.6705 2.29152 24.8029 2.07437C24.7866 2.07247 24.7703 2.07016 24.754 2.06745C24.445 2.01595 24.1033 2 23.7023 2H9.10795Z" fill="#38FF3F"/>
</svg>