<svg xmlns="http://www.w3.org/2000/svg" width="42" height="42" viewBox="0 0 42 42" fill="none">
  <path d="M21 41C32.0457 41 41 32.0457 41 21C41 9.9543 32.0457 1 21 1C9.9543 1 1 9.9543 1 21C1 32.0457 9.9543 41 21 41Z" stroke="#00BD94" stroke-width="2" stroke-miterlimit="10" stroke-linecap="round" stroke-linejoin="round"/>
  <path d="M20.9999 26.7598C19.1799 26.7598 17.7 25.2797 17.7 23.4597V18.5198C17.7 16.6998 19.1799 15.2197 20.9999 15.2197C22.8199 15.2197 24.2999 16.6998 24.2999 18.5198V23.4597C24.2999 25.2797 22.8199 26.7598 20.9999 26.7598Z" stroke="#00BD94" stroke-width="2" stroke-linecap="round"/>
  <path d="M30.96 23.9398C30.56 29.0998 26.24 33.1399 21 33.1399C15.48 33.1399 11 28.6599 11 23.1399V18.8599C11 13.3399 15.48 8.85986 21 8.85986C26.18 8.85986 30.44 12.7998 30.94 17.8398" stroke="#00BD94" stroke-width="2" stroke-linecap="round"/>
</svg>