<svg xmlns="http://www.w3.org/2000/svg" width="18" height="18" viewBox="0 0 18 18" fill="none">
  <path d="M9 1C11.0793 2.83696 13.793 3.79339 16.5664 3.66667C16.9701 5.03824 17.0937 6.47686 16.9297 7.89705C16.7656 9.31724 16.3174 10.69 15.6116 11.9338C14.9058 13.1776 13.9568 14.267 12.821 15.1373C11.6852 16.0076 10.3858 16.6411 9 17M9 1C6.92073 2.83696 4.20695 3.79339 1.43363 3.66667C1.02986 5.03824 0.906316 6.47686 1.07034 7.89705C1.23436 9.31724 1.68259 10.69 2.38841 11.9338C3.09424 13.1776 4.04324 14.267 5.17902 15.1373C6.31481 16.0076 7.61421 16.6411 9 17M9 1V17" stroke="#38FF3F" stroke-width="2" stroke-linecap="round" stroke-linejoin="round"/>
</svg>