<svg xmlns="http://www.w3.org/2000/svg" width="30" height="30" viewBox="0 0 30 30" fill="none">
  <path fill-rule="evenodd" clip-rule="evenodd" d="M7.7998 19.8C8.31757 19.8 8.7373 20.2197 8.7373 20.7375V23.6484C8.7373 24.1662 8.31757 24.5859 7.7998 24.5859C7.28204 24.5859 6.8623 24.1662 6.8623 23.6484V20.7375C6.8623 20.2197 7.28204 19.8 7.7998 19.8Z" fill="#38FF3F"/>
  <path fill-rule="evenodd" clip-rule="evenodd" d="M15 16.8891C15.5178 16.8891 15.9375 17.3088 15.9375 17.8266V23.6485C15.9375 24.1662 15.5178 24.586 15 24.586C14.4822 24.586 14.0625 24.1662 14.0625 23.6485V17.8266C14.0625 17.3088 14.4822 16.8891 15 16.8891Z" fill="#38FF3F"/>
  <path fill-rule="evenodd" clip-rule="evenodd" d="M22.2002 13.9641C22.718 13.9641 23.1377 14.3838 23.1377 14.9016V23.6485C23.1377 24.1663 22.718 24.586 22.2002 24.586C21.6824 24.586 21.2627 24.1663 21.2627 23.6485V14.9016C21.2627 14.3838 21.6824 13.9641 22.2002 13.9641Z" fill="#38FF3F"/>
  <path fill-rule="evenodd" clip-rule="evenodd" d="M22.808 5.63792C23.2021 5.97367 23.2494 6.56537 22.9137 6.95952L22.2655 7.72048C18.5524 12.0597 13.573 15.1314 8.02684 16.5144C7.52446 16.6396 7.01564 16.3339 6.89038 15.8315C6.76511 15.3291 7.07083 14.8203 7.57321 14.6951C12.7423 13.4062 17.3816 10.5438 20.8403 6.5021C20.8401 6.50233 20.8405 6.50188 20.8403 6.5021L21.4864 5.74364C21.8221 5.3495 22.4138 5.30216 22.808 5.63792Z" fill="#38FF3F"/>
  <path fill-rule="evenodd" clip-rule="evenodd" d="M17.1421 6.35156C17.1421 5.8338 17.5618 5.41406 18.0796 5.41406H22.1999C22.7177 5.41406 23.1374 5.8338 23.1374 6.35156V10.4578C23.1374 10.9756 22.7177 11.3953 22.1999 11.3953C21.6821 11.3953 21.2624 10.9756 21.2624 10.4578V7.28906H18.0796C17.5618 7.28906 17.1421 6.86933 17.1421 6.35156Z" fill="#38FF3F"/>
  <path fill-rule="evenodd" clip-rule="evenodd" d="M2.55974 2.55974C4.40361 0.715876 7.17316 0 10.7812 0H19.2188C22.8268 0 25.5964 0.715876 27.4403 2.55974C29.2841 4.40361 30 7.17316 30 10.7812V19.2188C30 22.8268 29.2841 25.5964 27.4403 27.4403C25.5964 29.2841 22.8268 30 19.2188 30H10.7812C7.17316 30 4.40361 29.2841 2.55974 27.4403C0.715876 25.5964 0 22.8268 0 19.2188V10.7812C0 7.17316 0.715876 4.40361 2.55974 2.55974ZM3.88557 3.88557C2.56537 5.20576 1.875 7.35809 1.875 10.7812V19.2188C1.875 22.6419 2.56537 24.7942 3.88557 26.1144C5.20576 27.4346 7.35809 28.125 10.7812 28.125H19.2188C22.6419 28.125 24.7942 27.4346 26.1144 26.1144C27.4346 24.7942 28.125 22.6419 28.125 19.2188V10.7812C28.125 7.35809 27.4346 5.20576 26.1144 3.88557C24.7942 2.56537 22.6419 1.875 19.2188 1.875H10.7812C7.35809 1.875 5.20576 2.56537 3.88557 3.88557Z" fill="#38FF3F"/>
</svg>