<svg xmlns="http://www.w3.org/2000/svg" width="18" height="16" viewBox="0 0 18 16" fill="none">
  <path d="M5.44444 5.375L8.11111 8L5.44444 10.625M9.88889 10.625H12.5556M1 2.75C1 2.28587 1.1873 1.84075 1.5207 1.51256C1.8541 1.18437 2.30628 1 2.77778 1H15.2222C15.6937 1 16.1459 1.18437 16.4793 1.51256C16.8127 1.84075 17 2.28587 17 2.75V13.25C17 13.7141 16.8127 14.1592 16.4793 14.4874C16.1459 14.8156 15.6937 15 15.2222 15H2.77778C2.30628 15 1.8541 14.8156 1.5207 14.4874C1.1873 14.1592 1 13.7141 1 13.25V2.75Z" stroke="white" stroke-width="2" stroke-linecap="round" stroke-linejoin="round"/>
</svg>