<svg xmlns="http://www.w3.org/2000/svg" width="37" height="32" viewBox="0 0 37 32" fill="none">
  <path fill-rule="evenodd" clip-rule="evenodd" d="M19.3332 11.1667C17.5843 11.1667 16.1665 12.5845 16.1665 14.3334C16.1665 16.0823 17.5843 17.5 19.3332 17.5C21.0821 17.5 22.4998 16.0823 22.4998 14.3334C22.4998 12.5845 21.0821 11.1667 19.3332 11.1667ZM14.1665 14.3334C14.1665 11.4799 16.4797 9.16669 19.3332 9.16669C22.1866 9.16669 24.4998 11.4799 24.4998 14.3334C24.4998 17.1868 22.1866 19.5 19.3332 19.5C16.4797 19.5 14.1665 17.1868 14.1665 14.3334Z" fill="#38FF3F"/>
  <path fill-rule="evenodd" clip-rule="evenodd" d="M30.1665 9.16669C30.7188 9.16669 31.1665 9.6144 31.1665 10.1667V18.5C31.1665 19.0523 30.7188 19.5 30.1665 19.5C29.6142 19.5 29.1665 19.0523 29.1665 18.5V10.1667C29.1665 9.6144 29.6142 9.16669 30.1665 9.16669Z" fill="#38FF3F"/>
  <path fill-rule="evenodd" clip-rule="evenodd" d="M7.66667 18.6667C4.53562 18.6667 2 21.2023 2 24.3334C2 25.3959 2.29734 26.3978 2.81782 27.2418L2.82609 27.2555C3.8025 28.897 5.59883 30 7.66667 30C9.7345 30 11.5308 28.897 12.5072 27.2555L12.5155 27.2418C13.036 26.3978 13.3333 25.3959 13.3333 24.3334C13.3333 21.2023 10.7977 18.6667 7.66667 18.6667ZM0 24.3334C0 20.0977 3.43105 16.6667 7.66667 16.6667C11.9023 16.6667 15.3333 20.0977 15.3333 24.3334C15.3333 25.768 14.9323 27.1302 14.2221 28.2848C12.8975 30.5061 10.4626 32 7.66667 32C4.87071 32 2.43579 30.5061 1.11128 28.2848C0.401036 27.1302 0 25.768 0 24.3334Z" fill="#38FF3F"/>
  <path fill-rule="evenodd" clip-rule="evenodd" d="M11.003 22.0202C11.378 22.4257 11.3533 23.0584 10.9478 23.4334L7.39782 26.7167C7.0035 27.0813 6.39152 27.0694 6.01172 26.6896L4.36174 25.0396C3.97122 24.6491 3.97122 24.0159 4.36174 23.6254C4.75227 23.2349 5.38543 23.2349 5.77595 23.6254L6.74589 24.5954L9.58985 21.9651C9.99531 21.5901 10.628 21.6148 11.003 22.0202Z" fill="#38FF3F"/>
  <path fill-rule="evenodd" clip-rule="evenodd" d="M5.63862 3.71196C4.44035 4.82464 3.6665 6.60727 3.6665 9.33333V19.8333C3.6665 20.3856 3.21879 20.8333 2.6665 20.8333C2.11422 20.8333 1.6665 20.3856 1.6665 19.8333V9.33333C1.6665 6.22607 2.55932 3.84203 4.27772 2.24637C5.9827 0.663178 8.34654 0 10.9998 0H27.6665C30.3198 0 32.6836 0.663178 34.3886 2.24637C36.107 3.84203 36.9998 6.22607 36.9998 9.33333V19.3333C36.9998 22.4406 36.107 24.8246 34.3886 26.4203C32.6836 28.0035 30.3198 28.6667 27.6665 28.6667H13.4998C12.9476 28.6667 12.4998 28.219 12.4998 27.6667C12.4998 27.1144 12.9476 26.6667 13.4998 26.6667H27.6665C30.0132 26.6667 31.816 26.0798 33.0277 24.9547C34.226 23.842 34.9998 22.0594 34.9998 19.3333V9.33333C34.9998 6.60727 34.226 4.82464 33.0277 3.71196C31.816 2.58682 30.0132 2 27.6665 2H10.9998C8.65313 2 6.85031 2.58682 5.63862 3.71196Z" fill="#38FF3F"/>
</svg>