<svg xmlns="http://www.w3.org/2000/svg" width="129" height="26" viewBox="0 0 129 26" fill="none">
  <path d="M3.07316 11.0591C4.57886 12.0975 6.65568 12.3571 8.42099 12.3571C10.8613 12.3571 12.7304 11.8379 14.0284 10.7995C15.3264 9.76108 15.9495 8.41115 15.9495 6.74969C15.9495 4.82862 14.9111 3.0114 13.1458 2.12875C12.5746 1.86914 12.0035 1.60954 11.3805 1.45378C10.4978 1.2461 9.51132 1.14225 8.42099 1.14225C5.98071 1.14225 4.11157 1.66146 2.81355 2.69987C1.51554 3.73829 0.89249 5.08822 0.89249 6.74969C0.89249 7.73618 1.10017 8.61883 1.46362 9.34572C1.87898 10.0207 2.39819 10.5918 3.07316 11.0591ZM6.65568 2.85564C7.07105 2.12875 7.64218 1.7653 8.42099 1.7653C9.14787 1.7653 9.77092 2.12875 10.1863 2.85564C10.6017 3.58253 10.8093 4.88054 10.8093 6.69776C10.8093 8.51499 10.6017 9.813 10.1863 10.5399C9.77092 11.2668 9.1998 11.6302 8.42099 11.6302C7.6941 11.6302 7.07105 11.2668 6.65568 10.5399C6.24032 9.813 6.03264 8.51499 6.03264 6.69776C6.03264 4.88054 6.24032 3.58253 6.65568 2.85564ZM17.2475 19.5222C17.2475 20.7683 16.936 22.1701 16.1572 23.1566C15.1188 24.4546 13.5611 25.1815 11.9516 25.545C10.0305 25.9603 8.10946 26.1161 6.13648 25.9084C4.42309 25.7007 2.24243 25.3892 0.89249 24.1431C0.425204 23.7277 0.0617596 23.1566 0.00983899 22.5336C-0.0420817 22.0144 0.11368 21.4432 0.425204 20.9759C0.736728 20.5087 1.15209 20.0933 1.6713 19.8856C2.45011 19.5741 3.38468 19.626 4.05965 20.0933C4.73462 20.5606 5.2019 21.3913 5.2019 22.222C5.2019 23.0528 4.78654 23.8835 4.11157 24.3508C5.77303 24.9738 7.38257 25.2854 9.1998 25.1815C10.8613 25.0777 12.5227 24.6623 13.9765 23.8316C15.2745 23.0528 15.8976 22.0663 15.8976 20.924C15.8976 19.4702 14.5476 18.6914 11.7958 18.6914H5.35767C3.64428 18.6914 2.34627 18.328 1.46362 17.653C0.269442 16.7185 -0.145923 15.1089 0.321363 13.6551C0.684808 12.6167 1.87898 11.9937 2.96932 12.0456C2.81355 12.2533 2.65779 12.5129 2.65779 12.7725C2.65779 13.1359 2.9174 13.3955 3.22892 13.5513C3.64428 13.759 4.31925 13.8628 5.35767 13.8628H11.8477C13.5611 13.8628 14.9111 14.382 15.8456 15.3685C16.7802 16.355 17.2475 17.7569 17.2475 19.5222ZM21.2454 2.59603C21.2454 4.04981 20.1031 5.19207 18.6494 5.19207C17.1956 5.19207 16.0533 4.04981 16.0533 2.59603C16.0533 1.14225 17.1956 0 18.6494 0C20.1031 0 21.2454 1.14225 21.2454 2.59603ZM33.7583 10.9553V10.3322L31.2661 6.80161V21.1836C31.2661 21.4952 31.1622 21.8067 30.9026 22.0144C30.6949 22.222 30.3834 22.3778 30.0719 22.3778C29.7604 22.3778 29.4489 22.274 29.2412 22.0144C29.0335 21.7548 28.8777 21.4952 28.8777 21.1836V3.5306H31.941L34.8486 7.7881L37.86 3.5306H40.8714V21.1836C40.8714 21.4952 40.7676 21.8067 40.508 22.0144C40.2483 22.222 39.9887 22.3778 39.6253 22.3778C39.3138 22.3778 39.0023 22.274 38.7946 22.0144C38.535 21.7548 38.4311 21.4952 38.4311 21.1836V6.90545L36.0428 10.3322V11.0072C36.0428 11.3187 35.9389 11.6302 35.6793 11.8379C35.4197 12.0975 35.1601 12.2014 34.8486 12.2014C34.5371 12.2014 34.2256 12.0975 34.0179 11.8379C33.8621 11.5783 33.7583 11.2668 33.7583 10.9553ZM55.6169 13.1878V16.0954C55.6169 16.4069 55.513 16.7185 55.2534 16.9261C54.9938 17.1857 54.7342 17.2896 54.4227 17.2896H45.9596V17.9645C45.9596 18.3799 46.1154 18.6914 46.4788 19.003L47.1538 19.5741C47.5172 19.8856 47.8807 19.9895 48.2441 19.9895H54.3708C54.6823 19.9895 54.9938 20.0933 55.2015 20.3529C55.4611 20.5606 55.5649 20.8721 55.5649 21.1836C55.5649 21.4952 55.4611 21.8067 55.2015 22.0144C54.9419 22.274 54.6823 22.3778 54.3708 22.3778H48.1403C47.7249 22.3778 47.3096 22.274 46.8423 22.1182C46.375 21.9624 46.0635 21.7548 45.8039 21.5471L44.7135 20.6644C44.402 20.4048 44.0905 20.0414 43.8828 19.5741C43.6751 19.1068 43.5713 18.6395 43.5713 18.2761V12.7725C43.5713 12.461 43.6751 12.0456 43.9347 11.5264C44.1943 11.0072 44.5058 10.5918 44.8693 10.2803L45.8558 9.50148C46.5307 8.98227 47.2576 8.72267 48.0364 8.72267H51.4113C52.242 8.72267 53.0728 9.08611 53.7996 9.76108L54.6823 10.5918C55.3053 11.2149 55.6169 12.0456 55.6169 13.1878ZM46.0115 13.0321V14.9012H53.2285V13.2398C53.2285 12.7725 53.0728 12.461 52.8131 12.2014L52.1382 11.5783C51.7747 11.2668 51.4632 11.1629 51.1517 11.1629H48.1403C47.7768 11.1629 47.4134 11.2668 47.1538 11.5264L46.4788 12.0975C46.1673 12.3052 46.0115 12.6167 46.0115 13.0321ZM66.624 22.4297H64.2357C63.2492 22.4297 62.4185 22.0663 61.6916 21.3913C60.9647 20.7163 60.6012 19.8337 60.6012 18.8472V11.111H59.3551C59.0436 11.111 58.7321 11.0072 58.5244 10.7476C58.3167 10.5399 58.161 10.2284 58.161 9.91685C58.161 9.60532 58.2648 9.2938 58.5244 9.08611C58.7321 8.87843 59.0436 8.72267 59.3551 8.72267H60.6012V5.81511C60.6012 5.50359 60.7051 5.19207 60.9647 4.98438C61.1724 4.7767 61.4839 4.62094 61.7954 4.62094C62.1069 4.62094 62.3666 4.72478 62.6262 4.98438C62.8858 5.24399 62.9896 5.50359 62.9896 5.81511V8.72267H67.7663C68.0778 8.72267 68.3894 8.82651 68.597 9.08611C68.8566 9.34572 68.9605 9.60532 68.9605 9.91685C68.9605 10.2284 68.8566 10.5399 68.597 10.7476C68.3374 10.9553 68.0778 11.111 67.7663 11.111H62.9377V18.8472C62.9377 19.1587 63.0415 19.4702 63.3011 19.6779C63.5607 19.9375 63.8203 20.0414 64.1838 20.0414H66.5202C67.1433 20.0414 67.5586 19.6779 67.7663 19.003C67.974 18.328 68.3894 17.9645 68.9605 17.9645C69.3239 17.9645 69.5835 18.0684 69.8431 18.328C70.0508 18.5357 70.1547 18.8472 70.1547 19.2106C70.1547 19.9375 69.7912 20.6644 69.1162 21.3394C68.5451 22.0663 67.6625 22.4297 66.624 22.4297ZM76.4371 13.8109H81.1099C81.3695 13.8109 81.733 13.8628 82.2002 13.9667L82.1483 12.2533C82.1483 11.9418 82.0445 11.6302 81.7849 11.4225C81.5772 11.2149 81.2657 11.0591 80.9541 11.0591H76.4371C76.1255 11.0591 75.814 10.9553 75.6063 10.6957C75.3467 10.4361 75.2429 10.1764 75.2429 9.86493C75.2429 9.5534 75.3467 9.24188 75.6063 9.03419C75.814 8.82651 76.1255 8.67075 76.4371 8.67075H80.9541C81.9406 8.67075 82.7714 9.03419 83.4983 9.70916C84.1732 10.3841 84.5367 11.2668 84.5886 12.2533L84.9001 21.1836C84.9001 21.4952 84.7963 21.8067 84.5367 22.0144C84.2771 22.222 84.0175 22.3778 83.7059 22.3778C83.3425 22.3778 83.0829 22.274 82.8233 22.0144C82.5637 21.8067 82.4598 21.4952 82.4598 21.1836L80.4349 22.3778H76.3851C75.3986 22.3778 74.516 22.0144 73.841 21.3394C73.1141 20.6644 72.8026 19.7818 72.8026 18.7953V17.3934C72.8026 16.4069 73.1661 15.5762 73.841 14.8493C74.6198 14.1743 75.4506 13.8109 76.4371 13.8109ZM82.4079 18.4318L82.356 17.4453C82.356 17.0819 82.2522 16.8223 81.9926 16.6146C81.733 16.4069 81.4734 16.2512 81.1618 16.2512H76.4371C76.1255 16.2512 75.814 16.355 75.6063 16.6146C75.3986 16.8223 75.2429 17.1338 75.2429 17.4453V18.7953C75.2429 19.1068 75.3467 19.4183 75.6063 19.626C75.8659 19.8856 76.1255 19.9895 76.4371 19.9895H79.8119L82.4079 18.4318ZM92.3767 10.9553V10.3322L89.8845 6.80161V21.1836C89.8845 21.4952 89.7807 21.8067 89.5211 22.0144C89.3134 22.222 89.0018 22.3778 88.6903 22.3778C88.3788 22.3778 88.0673 22.274 87.8596 22.0144C87.6519 21.7548 87.4961 21.4952 87.4961 21.1836V3.5306H90.5595L93.467 7.7881L96.4784 3.5306H99.4898V21.1836C99.4898 21.4952 99.386 21.8067 99.1264 22.0144C98.8668 22.222 98.6072 22.3778 98.2437 22.3778C97.9322 22.3778 97.6207 22.274 97.413 22.0144C97.1534 21.7548 97.0496 21.4952 97.0496 21.1836V6.90545L94.6612 10.3322V11.0072C94.6612 11.3187 94.5574 11.6302 94.2978 11.8379C94.0382 12.0975 93.7785 12.2014 93.467 12.2014C93.1555 12.2014 92.844 12.0975 92.6363 11.8379C92.4805 11.5783 92.3767 11.2668 92.3767 10.9553ZM105.772 13.8109H110.445C110.705 13.8109 111.068 13.8628 111.535 13.9667L111.483 12.2533C111.483 11.9418 111.38 11.6302 111.12 11.4225C110.912 11.2149 110.601 11.0591 110.289 11.0591H105.772C105.461 11.0591 105.149 10.9553 104.941 10.6957C104.682 10.4361 104.578 10.1764 104.578 9.86493C104.578 9.5534 104.682 9.24188 104.941 9.03419C105.149 8.82651 105.461 8.67075 105.772 8.67075H110.289C111.276 8.67075 112.107 9.03419 112.833 9.70916C113.508 10.3841 113.872 11.2668 113.924 12.2533L114.235 21.1836C114.235 21.4952 114.131 21.8067 113.872 22.0144C113.612 22.222 113.353 22.3778 113.041 22.3778C112.678 22.3778 112.418 22.274 112.158 22.0144C111.899 21.8067 111.795 21.4952 111.795 21.1836L109.77 22.3778H105.72C104.734 22.3778 103.851 22.0144 103.176 21.3394C102.449 20.6644 102.138 19.7818 102.138 18.7953V17.3934C102.138 16.4069 102.501 15.5762 103.176 14.8493C103.903 14.1743 104.786 13.8109 105.772 13.8109ZM111.743 18.4318L111.691 17.4453C111.691 17.0819 111.587 16.8223 111.328 16.6146C111.068 16.4069 110.809 16.2512 110.497 16.2512H105.772C105.461 16.2512 105.149 16.355 104.941 16.6146C104.734 16.8223 104.578 17.1338 104.578 17.4453V18.7953C104.578 19.1068 104.682 19.4183 104.941 19.626C105.201 19.8856 105.461 19.9895 105.772 19.9895H109.147L111.743 18.4318ZM120.206 8.72267H125.658C126.489 8.72267 127.267 8.98227 127.89 9.50148C128.565 10.0207 128.877 10.488 128.877 11.0072C128.877 11.3706 128.773 11.6302 128.513 11.8379C128.254 12.0456 127.994 12.1494 127.735 12.1494C127.371 12.1494 127.008 11.9937 126.696 11.6302C126.385 11.2668 126.073 11.111 125.71 11.111H120.31C119.791 11.111 119.531 11.3187 119.531 11.786C119.531 12.0975 119.687 12.3052 120.05 12.5129L126.385 15.3166C127.008 15.5762 127.579 16.0435 127.942 16.6665C128.358 17.2896 128.565 18.0165 128.565 18.7434C128.565 19.7818 128.202 20.6125 127.475 21.3394C126.748 22.0663 125.917 22.4297 125.035 22.4297H120.206C119.375 22.4297 118.597 22.1701 117.87 21.7028C117.143 21.1836 116.779 20.7163 116.779 20.2491C116.779 19.9375 116.883 19.6779 117.143 19.4183C117.351 19.1587 117.662 19.0549 118.025 19.0549C118.337 19.0549 118.649 19.2106 119.012 19.5741C119.375 19.9375 119.843 20.0933 120.518 20.0933H124.983C125.346 20.0933 125.606 19.9375 125.866 19.6779C126.125 19.4183 126.229 19.1068 126.229 18.7434C126.229 18.2241 125.969 17.8088 125.45 17.6011L119.064 14.6935C118.441 14.4339 117.974 14.0186 117.662 13.4994C117.351 12.9802 117.143 12.461 117.143 11.8898C117.143 11.0591 117.454 10.2803 118.025 9.65724C118.597 9.03419 119.324 8.72267 120.206 8.72267Z" fill="white" fill-opacity="0.8"/>
</svg>