<svg xmlns="http://www.w3.org/2000/svg" width="139" height="26" viewBox="0 0 139 26" fill="none">
  <path fill-rule="evenodd" clip-rule="evenodd" d="M39.4483 8.06896H43.931L48.7126 21.6169L53.4943 8.06896H57.8774L51.1034 25.5019H46.1226L39.4483 8.06896Z" fill="white" fill-opacity="0.8"/>
  <path fill-rule="evenodd" clip-rule="evenodd" d="M72.6207 17.0345C72.6207 14.046 70.6284 11.8544 67.5402 11.8544C64.5517 11.8544 62.4598 13.9464 62.4598 17.0345C62.4598 20.1226 64.5517 22.2146 67.5402 22.2146C70.6284 22.2146 72.6207 20.023 72.6207 17.0345ZM58.3755 17.2337C58.3755 11.8544 62.1609 8.06896 67.6399 8.06896C73.0192 8.06896 76.8046 11.6552 76.8046 17.1341V25.5019H73.0192V22.1149C72.023 24.6054 69.6322 25.9004 66.9425 25.9004C62.7586 26 58.3755 23.0115 58.3755 17.2337Z" fill="white" fill-opacity="0.8"/>
  <path fill-rule="evenodd" clip-rule="evenodd" d="M79.8927 16.4368C79.8927 10.5594 83.3793 7.57088 88.5594 7.57088C93.7395 7.57088 97.2261 10.5594 97.2261 16.4368V25.5019H92.9425V16.4368C92.9425 13.1494 91.1494 11.5556 88.4598 11.5556C85.7701 11.5556 83.977 13.1494 83.977 16.4368V25.5019H79.6935V16.4368H79.8927Z" fill="white" fill-opacity="0.8"/>
  <path fill-rule="evenodd" clip-rule="evenodd" d="M99.8161 18.8276V1.89272H104V8.06896H113.065V11.8544H104V18.8276C104 21.1188 105.195 22.1149 106.989 22.1149C108.682 22.1149 109.977 21.2184 109.977 18.8276V18.3295H114.161V18.8276C114.161 23.7088 111.272 26 106.989 26C102.705 26 99.8161 23.7088 99.8161 18.8276Z" fill="white" fill-opacity="0.8"/>
  <path fill-rule="evenodd" clip-rule="evenodd" d="M118.544 5.57854C120.138 5.57854 121.333 4.38314 121.333 2.78927C121.333 1.1954 120.138 0 118.544 0C116.95 0 115.755 1.1954 115.755 2.78927C115.655 4.38314 116.851 5.57854 118.544 5.57854Z" fill="white" fill-opacity="0.8"/>
  <path fill-rule="evenodd" clip-rule="evenodd" d="M116.153 25.5019H120.238V8.06896H116.153V25.5019Z" fill="white" fill-opacity="0.8"/>
  <path fill-rule="evenodd" clip-rule="evenodd" d="M123.724 20.4215H128.008C128.008 21.6169 129.103 22.3142 131.096 22.3142C133.287 22.3142 134.184 21.4176 134.184 20.4215C134.184 19.1264 132.59 18.9272 130.697 18.6284C128.008 18.2299 124.023 17.8314 124.023 13.5479C124.023 10.0613 126.713 7.6705 130.996 7.6705C135.28 7.6705 137.87 10.0613 138.069 13.0498H133.885C133.785 11.954 132.789 11.2567 131.096 11.2567C129.203 11.2567 128.307 12.1533 128.307 13.1494C128.307 14.4444 129.9 14.6437 131.793 14.9425C134.184 15.2414 138.467 15.7395 138.467 20.023C138.467 23.5096 135.579 25.8008 131.096 25.8008C126.613 26 123.824 23.7088 123.724 20.4215Z" fill="white" fill-opacity="0.8"/>
  <path fill-rule="evenodd" clip-rule="evenodd" d="M29.6858 7.77011C27.9923 7.77011 26.3985 8.16858 25.1035 8.76628C24.4061 9.16475 23.7088 9.56322 23.2107 10.0613C22.9119 10.3602 22.613 10.5594 22.4138 10.8582L14.5441 18.9272C14.5441 18.9272 11.8544 22.0153 9.56322 22.0153C6.4751 22.0153 4.38314 19.8238 4.38314 16.8352C4.38314 16.5364 4.38314 16.3372 4.48276 16.0383C4.88123 13.5479 6.97318 11.6552 9.56322 11.6552C11.4559 11.6552 12.9502 12.4521 13.8467 13.6475L16.7356 10.7586C15.0421 8.8659 12.6513 7.77011 9.66284 7.77011C3.88506 7.77011 0 11.5556 0 16.8352C0 19.7241 1.1954 22.1149 3.08812 23.7088C4.08429 24.6054 5.37931 25.3027 6.97318 25.6015C7.0728 25.6015 7.17241 25.6015 7.27203 25.7011C7.96935 25.8008 8.66667 25.9004 9.4636 25.9004C9.56322 25.9004 9.66284 25.9004 9.86207 25.9004C10.3602 25.9004 10.8582 25.8008 11.3563 25.7011C13.1494 25.4023 14.6437 24.705 15.7395 23.7088C15.8391 23.6092 15.8391 23.6092 15.9387 23.5096L16.0383 23.41L24.705 14.4444L25.7012 13.4483C26.4981 12.6513 27.6935 11.6552 29.8851 11.6552C32.6743 11.6552 34.8659 14.046 34.8659 16.8352C34.8659 19.9234 32.9732 22.0153 29.8851 22.0153C27.8927 22.0153 26.1992 21.1188 25.3027 19.6245C24.8046 18.8276 24.5057 17.931 24.5057 16.8352C24.5057 16.8352 24.5057 16.8352 24.5057 16.7356L20.9195 20.5211C21.2184 21.318 21.7165 22.0153 22.2146 22.7126C23.908 24.705 26.4981 25.9004 29.5862 25.9004C35.1648 25.9004 39.0498 22.0153 39.0498 16.8352C39.0498 11.6552 35.1648 7.77011 29.6858 7.77011Z" fill="white" fill-opacity="0.8"/>
</svg>