<svg xmlns="http://www.w3.org/2000/svg" width="130" height="26" viewBox="0 0 130 26" fill="none">
  <path d="M25.6558 25.8023L38.4924 12.9657L25.6558 0.129064L12.8192 12.9657L25.6558 25.8023Z" fill="white" fill-opacity="0.8"/>
  <path d="M12.8366 25.8023L25.6733 12.9657L12.8366 0.129062L0 12.9657L12.8366 25.8023Z" fill="white" fill-opacity="0.8"/>
  <path d="M58.9188 8.41025C59.3804 9.02564 59.6368 9.79487 59.6368 10.6667C59.6368 11.8974 59.1752 12.8718 58.2009 13.5385C57.2265 14.2051 55.8419 14.5641 53.9957 14.5641H46.8675V0.205101H53.5855C55.2778 0.205101 56.6111 0.512794 57.4829 1.17946C58.406 1.84613 58.8676 2.76921 58.8676 3.89742C58.8676 4.61537 58.7137 5.23076 58.3547 5.79486C58.047 6.35897 57.5855 6.76922 57.0214 7.07692C57.7906 7.33333 58.4573 7.79487 58.9188 8.41025ZM49.5342 6.2564H53.3291C54.2522 6.2564 54.9701 6.10255 55.4829 5.74358C55.9958 5.3846 56.2522 4.92306 56.2522 4.2564C56.2522 3.58973 55.9958 3.12819 55.4829 2.76921C54.9701 2.41024 54.2522 2.25639 53.3291 2.25639H49.5342V6.2564ZM56.9188 10.4103C56.9188 9.02564 55.8932 8.35897 53.8419 8.35897H49.5342V12.5128H53.8419C55.8932 12.4615 56.9188 11.7949 56.9188 10.4103Z" fill="white" fill-opacity="0.8"/>
  <path d="M62.4583 0.205129H65.125V14.5641H62.4583V0.205129Z" fill="white" fill-opacity="0.8"/>
  <path d="M81.7402 0.205101V14.5641H79.535L71.6376 4.8205V14.5641H68.9709V0.205101H71.176L79.0735 9.94872V0.205101H81.7402Z" fill="white" fill-opacity="0.8"/>
  <path d="M94.92 11.2308H87.7405L86.3046 14.5641H83.5353L89.9969 0.205129H92.6123L99.0738 14.5641H96.3046L94.92 11.2308ZM94.0482 9.12823L91.3302 2.8718L88.6636 9.12823H94.0482Z" fill="white" fill-opacity="0.8"/>
  <path d="M113.739 0.205101V14.5641H111.534L103.636 4.8205V14.5641H100.97V0.205101H103.175L111.072 9.94872V0.205101H113.739Z" fill="white" fill-opacity="0.8"/>
  <path d="M120.304 13.7949C119.125 13.1795 118.202 12.2564 117.535 11.1795C116.868 10.0513 116.561 8.76926 116.561 7.38464C116.561 6.00002 116.92 4.71796 117.586 3.58976C118.253 2.46155 119.176 1.58975 120.355 0.974362C121.535 0.358975 122.817 0 124.304 0C125.484 0 126.561 0.205129 127.535 0.615387C128.509 1.02564 129.33 1.64103 129.996 2.41026L128.253 4.0513C127.227 2.92309 125.945 2.35898 124.407 2.35898C123.432 2.35898 122.561 2.56411 121.74 3.02565C120.92 3.48719 120.355 4.05129 119.894 4.82053C119.432 5.58976 119.227 6.46156 119.227 7.43592C119.227 8.41028 119.432 9.28208 119.894 10.0513C120.355 10.8205 120.92 11.4359 121.74 11.8462C122.561 12.2564 123.381 12.5129 124.407 12.5129C125.945 12.5129 127.227 11.9488 128.253 10.8205L129.996 12.4616C129.33 13.2308 128.509 13.8462 127.535 14.2565C126.561 14.6667 125.484 14.8718 124.304 14.8718C122.766 14.7693 121.484 14.4616 120.304 13.7949Z" fill="white" fill-opacity="0.8"/>
  <path d="M52.2528 23.0771C52.4579 23.3335 52.5605 23.6925 52.5605 24.1027C52.5605 24.6669 52.3553 25.0771 51.8938 25.3848C51.4835 25.6925 50.8169 25.8463 49.9963 25.8463H46.8168V19.3848H49.8425C50.6117 19.3848 51.1758 19.5386 51.5861 19.8463C51.9963 20.154 52.2015 20.5643 52.2015 21.0771C52.2015 21.3848 52.1502 21.6925 51.9963 21.9489C51.8425 22.2053 51.6374 22.4104 51.381 22.513C51.7399 22.6156 52.0476 22.8207 52.2528 23.0771ZM47.9963 20.3079V22.1027H49.6886C50.0989 22.1027 50.4066 22.0515 50.663 21.8976C50.8681 21.7438 51.022 21.5386 51.022 21.2309C51.022 20.9233 50.9194 20.7181 50.663 20.5643C50.4579 20.4104 50.0989 20.3591 49.6886 20.3591H47.9963V20.3079ZM51.3297 23.9489C51.3297 23.3335 50.8681 23.0258 49.9451 23.0258H47.9963V24.872H49.9451C50.8681 24.9233 51.3297 24.6156 51.3297 23.9489Z" fill="white" fill-opacity="0.8"/>
  <path d="M55.4326 19.3848H56.6121V24.8207H59.9967V25.8463H55.4326V19.3848Z" fill="white" fill-opacity="0.8"/>
  <path d="M63.6375 25.4872C63.1247 25.1795 62.7144 24.8205 62.4067 24.3077C62.099 23.7949 61.9452 23.2308 61.9452 22.6154C61.9452 22 62.099 21.4359 62.4067 20.9231C62.7144 20.4102 63.1247 20 63.6375 19.7436C64.1503 19.4359 64.7657 19.3333 65.4324 19.3333C66.0991 19.3333 66.6632 19.4872 67.2273 19.7436C67.7401 20.0513 68.1503 20.4102 68.458 20.9231C68.7657 21.4359 68.9196 22 68.9196 22.6154C68.9196 23.2308 68.7657 23.7949 68.458 24.3077C68.1503 24.8205 67.7401 25.2308 67.2273 25.4872C66.7144 25.7949 66.0991 25.8974 65.4324 25.8974C64.7657 25.9487 64.1503 25.7949 63.6375 25.4872ZM66.5606 24.6154C66.9196 24.4102 67.176 24.1538 67.3811 23.7949C67.5862 23.4359 67.6888 23.0769 67.6888 22.6154C67.6888 22.1538 67.5862 21.7949 67.3811 21.4359C67.176 21.0769 66.9196 20.8205 66.5606 20.6154C66.2016 20.4102 65.8426 20.3077 65.3811 20.3077C64.9708 20.3077 64.5606 20.4102 64.2016 20.6154C63.8426 20.8205 63.5862 21.0769 63.3811 21.4359C63.176 21.7949 63.0734 22.1538 63.0734 22.6154C63.0734 23.0769 63.176 23.4359 63.3811 23.7949C63.5862 24.1538 63.8426 24.4102 64.2016 24.6154C64.5606 24.8205 64.9196 24.9231 65.3811 24.9231C65.8426 24.8718 66.2529 24.7692 66.5606 24.6154Z" fill="white" fill-opacity="0.8"/>
  <path d="M72.9724 25.4872C72.4595 25.1795 72.0493 24.8205 71.7416 24.3077C71.4339 23.7949 71.28 23.2308 71.28 22.6154C71.28 22 71.4339 21.4359 71.7416 20.9231C72.0493 20.4102 72.4595 20 72.9724 19.7436C73.4852 19.4359 74.1006 19.3333 74.716 19.3333C75.2288 19.3333 75.7416 19.4359 76.1518 19.5897C76.6134 19.7949 76.9724 20.0513 77.2801 20.4102L76.5108 21.1282C76.0493 20.6154 75.4852 20.359 74.7672 20.359C74.3057 20.359 73.9467 20.4615 73.5877 20.6666C73.2288 20.8718 72.9724 21.1282 72.7672 21.4872C72.5621 21.8461 72.4595 22.2051 72.4595 22.6667C72.4595 23.1282 72.5621 23.4872 72.7672 23.8461C72.9724 24.2051 73.2288 24.4615 73.5877 24.6667C73.9467 24.8718 74.357 24.9744 74.7672 24.9744C75.4339 24.9744 76.0493 24.7179 76.5108 24.2051L77.2801 24.9231C76.9724 25.282 76.6134 25.5385 76.1518 25.7436C75.6903 25.9487 75.2288 26 74.716 26C74.1006 25.9487 73.4852 25.7949 72.9724 25.4872Z" fill="white" fill-opacity="0.8"/>
  <path d="M82.253 23.1284L81.2274 24.2053V25.8463H80.0479V19.3848H81.2274V22.7181L84.4069 19.3848H85.7402L83.0223 22.2566L85.8941 25.8463H84.5094L82.253 23.1284Z" fill="white" fill-opacity="0.8"/>
  <path d="M93.6883 25.4872C93.1755 25.1795 92.7652 24.8205 92.4575 24.3077C92.1498 23.7949 91.996 23.2308 91.996 22.6154C91.996 22 92.1498 21.4359 92.4575 20.9231C92.7652 20.4102 93.1755 20 93.6883 19.7436C94.2011 19.4359 94.8165 19.3333 95.4319 19.3333C95.9447 19.3333 96.4576 19.4359 96.8678 19.5897C97.3293 19.7949 97.6883 20.0513 97.996 20.4102L97.2268 21.1282C96.7652 20.6154 96.2011 20.359 95.4832 20.359C95.0216 20.359 94.6627 20.4615 94.3037 20.6666C93.9447 20.8718 93.6883 21.1282 93.4832 21.4872C93.2781 21.8461 93.1755 22.2051 93.1755 22.6667C93.1755 23.1282 93.2781 23.4872 93.4832 23.8461C93.6883 24.2051 93.9447 24.4615 94.3037 24.6667C94.6627 24.8718 95.0729 24.9744 95.4832 24.9744C96.1498 24.9744 96.7652 24.7179 97.2268 24.2051L97.996 24.9231C97.6883 25.282 97.3293 25.5385 96.8678 25.7436C96.4063 25.9487 95.9447 26 95.4319 26C94.8165 25.9487 94.2011 25.7949 93.6883 25.4872Z" fill="white" fill-opacity="0.8"/>
  <path d="M106.51 19.3848V25.8463H105.331V23.0771H101.997V25.8463H100.818V19.3848H101.997V22.0515H105.331V19.3848H106.51Z" fill="white" fill-opacity="0.8"/>
  <path d="M113.997 24.3592H110.767L110.151 25.8463H108.92L111.843 19.3848H113.023L115.946 25.8463H114.715L113.997 24.3592ZM113.638 23.3848L112.408 20.5643L111.177 23.3848H113.638Z" fill="white" fill-opacity="0.8"/>
  <path d="M118.306 19.3848H119.485V25.8463H118.306V19.3848Z" fill="white" fill-opacity="0.8"/>
  <path d="M128.563 19.3848V25.8463H127.588L124.05 21.4874V25.8463H122.87V19.3848H123.845L127.383 23.7438V19.3848H128.563Z" fill="white" fill-opacity="0.8"/>
</svg>