<svg width="215" height="50" viewBox="0 0 215 50" fill="none" xmlns="http://www.w3.org/2000/svg">
<path d="M37.1163 24.1071C31.1483 24.1071 26.243 28.5714 26.243 34.003C32.2928 34.003 37.1163 29.5387 37.1163 24.1071Z" fill="white"/>
<path d="M10.628 24.1071C10.628 29.5387 15.5333 34.003 21.5013 34.003C21.5013 28.497 16.6778 24.1071 10.628 24.1071Z" fill="white"/>
<path d="M20.1115 50C8.50242 50 7.52137 44.494 6.54032 39.6577C6.37681 38.9137 6.29506 38.244 6.13155 37.5C4.74173 31.5476 3.0249 29.1667 0 28.7202V25C0.081754 25 1.30806 24.7768 2.1256 23.7351C2.86139 22.6935 2.94314 21.131 2.37087 19.122C1.0628 14.4345 1.55333 9.97024 3.84244 6.69643C6.13155 3.34821 9.97399 1.11607 15.3698 0L16.269 3.64583C11.9361 4.53869 8.99294 6.1756 7.35786 8.63095C5.1505 11.9792 5.80453 16.0714 6.37681 18.2292C7.27611 21.3542 6.94909 23.9583 5.55927 25.8929C5.31401 26.1905 5.1505 26.4137 4.90524 26.6369C7.93014 28.7946 9.2382 32.6637 10.2192 36.6815C10.3828 37.5 10.5463 38.244 10.7098 38.9881C11.6091 43.6756 12.0996 46.2054 20.1932 46.2054V50H20.1115Z" fill="url(#paint0_linear_4941_92)"/>
<path d="M27.7146 50V46.2798C35.8082 46.2798 36.2988 43.75 37.1981 39.0625C37.3616 38.3185 37.5251 37.5744 37.6886 36.756C38.6696 32.7381 39.9777 28.869 43.0026 26.7113C42.7573 26.4881 42.5121 26.1905 42.3486 25.9673C40.877 24.0327 40.6317 21.4286 41.531 18.3036C42.1033 16.1458 42.8391 12.0536 40.55 8.70536C38.9149 6.25 35.89 4.6131 31.6388 3.72024L32.4563 0C37.8521 1.11607 41.6945 3.34821 43.9836 6.69643C46.2728 10.0446 46.7633 14.4345 45.4552 19.122C44.8829 21.131 44.9647 22.7679 45.7005 23.7351C46.4363 24.7768 47.7443 25 47.8261 25V28.7202C44.8012 29.1667 43.0844 31.5476 41.6945 37.5C41.531 38.244 41.3675 38.9137 41.2858 39.6577C40.3047 44.494 39.2419 50 27.7146 50Z" fill="url(#paint1_linear_4941_92)"/>
<path d="M61.656 33.464H64.032V17.336H61.656V12.8H72.708C73.908 12.8 74.964 12.968 75.876 13.304C76.812 13.64 77.592 14.096 78.216 14.672C78.864 15.248 79.344 15.944 79.656 16.76C79.992 17.552 80.16 18.416 80.16 19.352V19.784C80.16 21.224 79.752 22.376 78.936 23.24C78.144 24.104 77.136 24.704 75.912 25.04V25.688C77.136 26.024 78.144 26.636 78.936 27.524C79.752 28.388 80.16 29.54 80.16 30.98V31.412C80.16 32.348 79.992 33.224 79.656 34.04C79.344 34.832 78.864 35.528 78.216 36.128C77.592 36.704 76.812 37.16 75.876 37.496C74.964 37.832 73.908 38 72.708 38H61.656V33.464ZM68.784 33.464H72.24C73.248 33.464 74.064 33.248 74.688 32.816C75.312 32.384 75.624 31.664 75.624 30.656V30.44C75.624 29.432 75.312 28.712 74.688 28.28C74.064 27.848 73.248 27.632 72.24 27.632H68.784V33.464ZM68.784 23.096H72.24C73.248 23.096 74.064 22.892 74.688 22.484C75.312 22.052 75.624 21.332 75.624 20.324V20.108C75.624 19.1 75.312 18.392 74.688 17.984C74.064 17.552 73.248 17.336 72.24 17.336H68.784V23.096ZM102.347 29.288C102.347 30.776 102.095 32.096 101.591 33.248C101.087 34.376 100.403 35.336 99.539 36.128C98.675 36.896 97.679 37.484 96.551 37.892C95.447 38.3 94.283 38.504 93.059 38.504C91.835 38.504 90.659 38.3 89.531 37.892C88.427 37.484 87.443 36.896 86.579 36.128C85.715 35.336 85.031 34.376 84.527 33.248C84.023 32.096 83.771 30.776 83.771 29.288V28.856C83.771 27.392 84.023 26.096 84.527 24.968C85.031 23.816 85.715 22.844 86.579 22.052C87.443 21.26 88.427 20.66 89.531 20.252C90.659 19.844 91.835 19.64 93.059 19.64C94.283 19.64 95.447 19.844 96.551 20.252C97.679 20.66 98.675 21.26 99.539 22.052C100.403 22.844 101.087 23.816 101.591 24.968C102.095 26.096 102.347 27.392 102.347 28.856V29.288ZM93.059 34.184C93.707 34.184 94.319 34.076 94.895 33.86C95.471 33.644 95.975 33.332 96.407 32.924C96.839 32.516 97.175 32.024 97.415 31.448C97.679 30.848 97.811 30.176 97.811 29.432V28.712C97.811 27.968 97.679 27.308 97.415 26.732C97.175 26.132 96.839 25.628 96.407 25.22C95.975 24.812 95.471 24.5 94.895 24.284C94.319 24.068 93.707 23.96 93.059 23.96C92.411 23.96 91.799 24.068 91.223 24.284C90.647 24.5 90.143 24.812 89.711 25.22C89.279 25.628 88.931 26.132 88.667 26.732C88.427 27.308 88.307 27.968 88.307 28.712V29.432C88.307 30.176 88.427 30.848 88.667 31.448C88.931 32.024 89.279 32.516 89.711 32.924C90.143 33.332 90.647 33.644 91.223 33.86C91.799 34.076 92.411 34.184 93.059 34.184ZM106.39 20.144H111.682V12.8H116.218V20.144H122.662V24.464H116.218V32.6C116.218 33.32 116.542 33.68 117.19 33.68H122.014V38H114.454C113.638 38 112.966 37.736 112.438 37.208C111.934 36.68 111.682 36.008 111.682 35.192V24.464H106.39V20.144ZM128.073 20.144H135.633V22.736H136.281C136.617 21.752 137.181 20.996 137.973 20.468C138.789 19.916 139.761 19.64 140.889 19.64C142.665 19.64 144.093 20.204 145.173 21.332C146.253 22.436 146.793 24.128 146.793 26.408V27.2L142.113 27.632V27.128C142.113 26.144 141.861 25.364 141.357 24.788C140.853 24.188 140.097 23.888 139.089 23.888C138.081 23.888 137.289 24.236 136.713 24.932C136.137 25.628 135.849 26.624 135.849 27.92V33.68H139.953V38H127.641V33.68H131.313V24.464H128.073V20.144ZM162.536 35.408C162.056 36.536 161.384 37.34 160.52 37.82C159.656 38.276 158.648 38.504 157.496 38.504C156.416 38.504 155.396 38.3 154.436 37.892C153.5 37.484 152.672 36.884 151.952 36.092C151.232 35.3 150.656 34.34 150.224 33.212C149.816 32.084 149.612 30.8 149.612 29.36V28.784C149.612 27.368 149.816 26.096 150.224 24.968C150.632 23.84 151.184 22.88 151.88 22.088C152.576 21.296 153.38 20.696 154.292 20.288C155.228 19.856 156.224 19.64 157.28 19.64C158.552 19.64 159.572 19.856 160.34 20.288C161.132 20.72 161.756 21.392 162.212 22.304H162.86V20.144H167.396V32.6C167.396 33.32 167.72 33.68 168.368 33.68H169.052V38H165.956C165.14 38 164.468 37.76 163.94 37.28C163.436 36.8 163.184 36.176 163.184 35.408H162.536ZM158.504 34.184C159.824 34.184 160.88 33.752 161.672 32.888C162.464 32 162.86 30.8 162.86 29.288V28.856C162.86 27.344 162.464 26.156 161.672 25.292C160.88 24.404 159.824 23.96 158.504 23.96C157.184 23.96 156.128 24.404 155.336 25.292C154.544 26.156 154.148 27.344 154.148 28.856V29.288C154.148 30.8 154.544 32 155.336 32.888C156.128 33.752 157.184 34.184 158.504 34.184ZM185.839 35.408H185.191C184.999 35.816 184.759 36.212 184.471 36.596C184.207 36.956 183.847 37.28 183.391 37.568C182.959 37.856 182.431 38.084 181.807 38.252C181.207 38.42 180.475 38.504 179.611 38.504C178.507 38.504 177.475 38.312 176.515 37.928C175.579 37.52 174.751 36.932 174.031 36.164C173.335 35.372 172.783 34.412 172.375 33.284C171.991 32.156 171.799 30.86 171.799 29.396V28.748C171.799 27.308 172.003 26.024 172.411 24.896C172.843 23.768 173.419 22.82 174.139 22.052C174.883 21.26 175.735 20.66 176.695 20.252C177.679 19.844 178.711 19.64 179.791 19.64C181.231 19.64 182.371 19.916 183.211 20.468C184.051 20.996 184.711 21.752 185.191 22.736H185.839V12.8H190.375V38H185.839V35.408ZM181.087 34.184C182.503 34.184 183.643 33.74 184.507 32.852C185.395 31.94 185.839 30.752 185.839 29.288V28.856C185.839 27.392 185.395 26.216 184.507 25.328C183.643 24.416 182.503 23.96 181.087 23.96C179.671 23.96 178.519 24.404 177.631 25.292C176.767 26.156 176.335 27.344 176.335 28.856V29.288C176.335 30.8 176.767 32 177.631 32.888C178.519 33.752 179.671 34.184 181.087 34.184ZM199.062 30.548C199.086 31.076 199.206 31.568 199.422 32.024C199.662 32.456 199.974 32.84 200.358 33.176C200.766 33.488 201.222 33.74 201.726 33.932C202.254 34.1 202.806 34.184 203.382 34.184C204.51 34.184 205.374 33.992 205.974 33.608C206.574 33.2 207.006 32.72 207.27 32.168L211.158 34.328C210.942 34.784 210.642 35.264 210.258 35.768C209.874 36.248 209.37 36.692 208.746 37.1C208.146 37.508 207.402 37.844 206.514 38.108C205.65 38.372 204.63 38.504 203.454 38.504C202.11 38.504 200.886 38.288 199.782 37.856C198.678 37.424 197.718 36.8 196.902 35.984C196.11 35.168 195.486 34.172 195.03 32.996C194.598 31.82 194.382 30.488 194.382 29V28.784C194.382 27.416 194.61 26.168 195.066 25.04C195.546 23.912 196.194 22.952 197.01 22.16C197.826 21.368 198.774 20.756 199.854 20.324C200.958 19.868 202.134 19.64 203.382 19.64C204.918 19.64 206.238 19.916 207.342 20.468C208.446 20.996 209.358 21.68 210.078 22.52C210.798 23.336 211.326 24.248 211.662 25.256C211.998 26.24 212.166 27.2 212.166 28.136V30.548H199.062ZM203.346 23.744C202.194 23.744 201.258 24.044 200.538 24.644C199.818 25.22 199.35 25.892 199.134 26.66H207.558C207.414 25.82 206.958 25.124 206.19 24.572C205.446 24.02 204.498 23.744 203.346 23.744Z" fill="white"/>
<defs>
<linearGradient id="paint0_linear_4941_92" x1="7.94567" y1="-2.19933" x2="10.3747" y2="53.0141" gradientUnits="userSpaceOnUse">
<stop stop-color="#38FF3F"/>
<stop offset="1" stop-color="#00BD94"/>
</linearGradient>
<linearGradient id="paint1_linear_4941_92" x1="38.2856" y1="49.9385" x2="36.6158" y2="4.73909" gradientUnits="userSpaceOnUse">
<stop stop-color="#38FF3F"/>
<stop offset="1" stop-color="#00BD94"/>
</linearGradient>
</defs>
</svg>
